<svg width="59" height="54" viewBox="0 0 59 54" fill="none" xmlns="http://www.w3.org/2000/svg">
<path d="M57.9169 11.6803L37.0075 0.257184C36.6987 0.0884674 36.3521 0 35.9997 0C35.6473 0 35.3006 0.0884674 34.9918 0.257184L14.0825 11.6803C13.7546 11.8596 13.4812 12.123 13.2908 12.443C13.1004 12.763 13 13.1279 13 13.4997C13 13.8714 13.1004 14.2363 13.2908 14.5563C13.4812 14.8764 13.7546 15.1398 14.0825 15.3191L33.9087 26.1502V48.4128L27.5606 44.9444L25.545 48.5811L34.9918 53.7422C35.3005 53.9113 35.6472 54 35.9997 54C36.3521 54 36.6989 53.9113 37.0075 53.7422L57.9169 42.3191C58.2448 42.1399 58.5184 41.8766 58.7089 41.5565C58.8994 41.2365 58.9999 40.8715 59 40.4997V13.4997C58.9999 13.1279 58.8994 12.7629 58.7089 12.4429C58.5184 12.1229 58.2448 11.8595 57.9169 11.6803ZM35.9997 4.44842L52.5704 13.4997L35.9997 22.5509L19.429 13.4997L35.9997 4.44842ZM54.8181 39.2723L38.0906 48.4108V26.1482L54.8181 17.0097V39.2723Z" fill="white"/>
<path d="M16.6667 27.2H0V23H16.6667V27.2ZM20.8333 44H4.16667V39.8H20.8333V44ZM25 35.6H8.33333V31.4H25V35.6Z" fill="white"/>
</svg>
