<svg width="103" height="24" viewBox="0 0 103 24" fill="none" xmlns="http://www.w3.org/2000/svg">
<path d="M12.1577 4.69312V8.12366L9.18909 6.41845V3.01055L9.20932 3.00049L12.1577 4.69312Z" fill="white"/>
<path d="M15.4095 3.01055V6.41845L12.4409 8.12366V4.69312L15.3893 3.00049L15.4095 3.01055Z" fill="white"/>
<path d="M15.2477 2.76392L12.666 4.24529L12.3803 4.40877L12.2993 4.45656L12.2159 4.40877L11.9302 4.24529L9.35095 2.76392L10.0893 2.34139L10.3902 2.16785L10.6937 1.99431L10.8252 1.91886L10.858 1.89874L11.1261 1.74532L11.9302 1.28255L12.2993 1.07129L12.666 1.28255L13.4726 1.74532L13.7407 1.89874L13.7735 1.91886L13.905 1.99431L14.2085 2.16785L14.5094 2.34139L15.2477 2.76392Z" fill="white"/>
<path d="M10.7088 12.0747C6.78489 14.716 3.30624 17.9586 0.4021 21.6822H14.4082V21.6495C14.4082 21.4332 14.4259 21.2169 14.4082 21.0006C14.3096 18.7371 14.914 16.6345 15.9937 14.6627C17.4704 11.9514 19.5515 9.75077 21.9638 7.84687C22.2774 7.59537 22.5833 7.34386 22.9045 7.09235C23.2256 6.84085 23.5417 6.64718 23.8628 6.42334C19.023 7.36146 14.7041 9.36598 10.7088 12.0747ZM7.94756 21.2647L7.6239 21.1691C7.7655 20.6913 7.92986 20.2134 8.11192 19.7506L8.428 19.8739C8.24847 20.3266 8.08916 20.7969 7.94756 21.2647ZM9.02223 18.5258L8.71879 18.3774C8.93878 17.9322 9.18154 17.4896 9.43946 17.0595L9.73024 17.2331C9.47485 17.6531 9.23716 18.0882 9.02223 18.5258ZM10.5394 16.0107L10.2638 15.8146C10.5521 15.4147 10.8631 15.0148 11.1867 14.63L11.4396 14.8463C11.1311 15.2135 10.8252 15.6134 10.5419 16.0007L10.5394 16.0107ZM12.4384 13.7472L12.1856 13.5108C12.5295 13.1587 12.8961 12.8091 13.2729 12.4721L13.4979 12.7236C13.1414 13.0505 12.7798 13.3951 12.441 13.7422L12.4384 13.7472ZM14.6434 11.7704L14.4335 11.5188C14.8204 11.2145 15.225 10.9153 15.6397 10.626L15.8344 10.9002C15.4273 11.1693 15.0278 11.466 14.6358 11.7653L14.6434 11.7704ZM17.0734 10.0752L16.8964 9.78849C17.3136 9.53698 17.7511 9.28548 18.1936 9.03397L18.358 9.32824C17.923 9.56214 17.4907 9.81365 17.076 10.0802L17.0734 10.0752ZM19.6754 8.63912L19.5262 8.33729C19.9687 8.121 20.4289 7.90725 20.8891 7.70604L21.0257 8.01539C20.5705 8.20905 20.1179 8.4203 19.6779 8.63408L19.6754 8.63912Z" fill="white"/>
<path d="M0 7.21313C2.78181 8.80567 5.33369 10.766 7.58592 13.0405L11.1614 10.694C7.59686 9.0872 3.84878 7.91832 0 7.21313ZM3.44907 8.8454C3.1431 8.70708 2.83207 8.56875 2.52358 8.43797L2.6576 8.12862C2.96863 8.26192 3.28218 8.40025 3.59067 8.53857L3.44907 8.8454ZM5.26969 9.72316C4.9789 9.57225 4.67293 9.42137 4.36444 9.27298L4.51362 8.97116C4.82464 9.11955 5.13062 9.27298 5.42647 9.42388L5.26969 9.72316ZM7.03974 10.7015C6.76665 10.538 6.47332 10.367 6.16736 10.1985L6.33171 9.90426C6.64273 10.0753 6.9386 10.2463 7.21422 10.4073L7.03974 10.7015ZM7.88683 11.2423L8.07648 10.9656C8.36215 11.1571 8.63732 11.3636 8.90082 11.5843L8.68336 11.8358C8.4263 11.6248 8.15876 11.4267 7.88177 11.2423H7.88683Z" fill="white"/>
<path d="M33.3882 14.7332L27.3903 6.22728H32.4956L35.5477 10.699L38.582 6.22728H43.6874L37.6641 14.7332V22.5902H33.3882V14.7332ZM39.8034 2.06233L35.6235 4.92699L33.9673 3.38526L37.5225 0L39.8034 2.06233Z" fill="white"/>
<path d="M42.595 14.4088C42.585 13.2431 42.8147 12.0877 43.2701 11.0135C43.7078 9.98415 44.3454 9.05085 45.1464 8.26707C45.9699 7.47204 46.9448 6.84867 48.0138 6.43358C49.185 5.9824 50.4321 5.75789 51.688 5.77212C52.9412 5.75953 54.1855 5.984 55.3545 6.43358C56.4306 6.84818 57.413 7.47143 58.2447 8.26707C59.0512 9.04839 59.6926 9.98214 60.1311 11.0135C60.5873 12.0875 60.818 13.2429 60.8088 14.4088C60.818 15.5747 60.5873 16.7302 60.1311 17.8041C59.6926 18.8355 59.0512 19.7693 58.2447 20.5506C57.413 21.3462 56.4306 21.9695 55.3545 22.3841C54.1855 22.8337 52.9412 23.0581 51.688 23.0455C50.4321 23.0598 49.185 22.8353 48.0138 22.3841C46.9439 21.9693 45.9681 21.3459 45.1438 20.5506C44.3428 19.7668 43.7052 18.8335 43.2676 17.8041C42.8131 16.7298 42.5842 15.5744 42.595 14.4088ZM47.0656 14.4088C47.0589 15.0286 47.1856 15.6426 47.4373 16.2096C47.6779 16.7481 48.0214 17.235 48.4488 17.6432C48.8733 18.0493 49.3731 18.3696 49.9204 18.5863C50.4832 18.8107 51.0842 18.9251 51.6905 18.9234C52.2968 18.9251 52.8977 18.8107 53.4605 18.5863C54.0111 18.3688 54.5149 18.0486 54.9448 17.6432C55.374 17.2366 55.7178 16.7493 55.9563 16.2096C56.208 15.6426 56.3347 15.0286 56.328 14.4088C56.3344 13.7891 56.2077 13.1752 55.9563 12.6081C55.7172 12.0687 55.3734 11.5816 54.9448 11.1745C54.5143 10.7698 54.0107 10.4498 53.4605 10.2313C52.8977 10.007 52.2968 9.89255 51.6905 9.8943C51.0842 9.89255 50.4832 10.007 49.9204 10.2313C49.3735 10.4487 48.8739 10.769 48.4488 11.1745C48.022 11.5831 47.6785 12.0699 47.4373 12.6081C47.1859 13.1752 47.0592 13.7891 47.0656 14.4088Z" fill="white"/>
<path d="M67.2088 6.22729V18.9862H72.3343V22.5902H62.9329V6.22729H67.2088Z" fill="white"/>
<path d="M78.8152 6.22729V18.9862H83.9408V22.5902H74.5367V6.22729H78.8152Z" fill="white"/>
<path d="M84.7828 14.4086C84.7726 13.2426 85.0033 12.087 85.4605 11.0133C85.8972 9.98342 86.5349 9.04995 87.3367 8.26685C88.1599 7.47145 89.1349 6.84803 90.2042 6.43337C91.3762 5.98187 92.6241 5.75735 93.8809 5.7719C95.1333 5.75957 96.3767 5.98404 97.5449 6.43337C98.6214 6.84851 99.6046 7.47167 100.438 8.26685C101.244 9.04817 101.885 9.98192 102.324 11.0133C102.779 12.0874 103.009 13.2429 102.999 14.4086C103.009 15.5743 102.779 16.7298 102.324 17.8039C101.885 18.8353 101.244 19.7691 100.438 20.5504C99.6046 21.3456 98.6214 21.9687 97.5449 22.3839C96.3767 22.8332 95.1333 23.0577 93.8809 23.0453C92.6241 23.0599 91.3762 22.8354 90.2042 22.3839C89.1349 21.9692 88.1599 21.3458 87.3367 20.5504C86.5349 19.7673 85.8972 18.8338 85.4605 17.8039C85.0033 16.7302 84.7726 15.5746 84.7828 14.4086ZM89.256 14.4086C89.2493 15.0284 89.376 15.6424 89.6277 16.2094C89.8681 16.748 90.2117 17.2349 90.6391 17.643C91.0641 18.0499 91.5648 18.3703 92.1133 18.5861C92.6761 18.8105 93.2771 18.9249 93.8834 18.9231C94.4897 18.9249 95.0906 18.8105 95.6534 18.5861C96.2037 18.3679 96.7074 18.0479 97.1377 17.643C97.5661 17.2356 97.9098 16.7486 98.1492 16.2094C98.4009 15.6424 98.5276 15.0284 98.5209 14.4086C98.5273 13.7889 98.4006 13.1749 98.1492 12.6078C97.9091 12.0691 97.5655 11.5821 97.1377 11.1742C96.7068 10.7701 96.2033 10.4502 95.6534 10.2311C95.0906 10.0067 94.4897 9.89233 93.8834 9.89409C93.2771 9.89233 92.6761 10.0067 92.1133 10.2311C91.5653 10.4479 91.0647 10.7682 90.6391 11.1742C90.2122 11.5828 89.8688 12.0696 89.6277 12.6078C89.3763 13.1749 89.2496 13.7889 89.256 14.4086Z" fill="white"/>
</svg>
